<svg width="24" height="24" viewBox="0 0 24 24" fill="none" xmlns="http://www.w3.org/2000/svg">
<path d="M17.9991 0.00511562L14.8868 0.00012207C11.3904 0.00012207 9.13078 2.31838 9.13078 5.90649V8.62973H6.00158C5.73117 8.62973 5.51221 8.84894 5.51221 9.11934V13.065C5.51221 13.3354 5.73142 13.5544 6.00158 13.5544H9.13078V23.5105C9.13078 23.7809 9.34975 23.9999 9.62015 23.9999H13.7029C13.9733 23.9999 14.1922 23.7807 14.1922 23.5105V13.5544H17.851C18.1214 13.5544 18.3404 13.3354 18.3404 13.065L18.3419 9.11934C18.3419 8.98951 18.2902 8.86517 18.1986 8.77329C18.1069 8.68141 17.9821 8.62973 17.8523 8.62973H14.1922V6.32121C14.1922 5.21164 14.4567 4.64837 15.902 4.64837L17.9986 4.64762C18.2687 4.64762 18.4877 4.4284 18.4877 4.15825V0.494484C18.4877 0.224582 18.269 0.00561498 17.9991 0.00511562Z" fill="#3DAFCC"/>
</svg>
