<svg width="16" height="16" viewBox="0 0 16 16" fill="none" xmlns="http://www.w3.org/2000/svg">
<path d="M14.5712 14.2856C14.9309 14.2856 15.2425 14.1669 15.5075 13.9324L10.9744 9.39917C10.8656 9.47705 10.7602 9.55278 10.6606 9.62479C10.3214 9.87473 10.0461 10.0698 9.83467 10.2095C9.62328 10.3496 9.34203 10.4924 8.99094 10.6381C8.63963 10.7841 8.31233 10.8568 8.00871 10.8568H7.99982H7.99093C7.68729 10.8568 7.35999 10.7841 7.0087 10.6381C6.65741 10.4924 6.37616 10.3496 6.16498 10.2095C5.95359 10.0698 5.67841 9.87476 5.339 9.62479C5.24442 9.55545 5.13952 9.47937 5.02611 9.39795L0.492188 13.9324C0.757085 14.1669 1.06892 14.2856 1.42855 14.2856H14.5712Z" fill="#3DAFCC"/>
<path d="M0.901882 6.54446C0.562678 6.31832 0.261876 6.05932 0 5.76758V12.6645L3.99542 8.6691C3.19611 8.11107 2.16624 7.40367 0.901882 6.54446Z" fill="#3DAFCC"/>
<path d="M15.1068 6.54446C13.8907 7.36759 12.8571 8.07621 12.0059 8.6707L15.9997 12.6647V5.76758C15.7436 6.05345 15.446 6.31227 15.1068 6.54446Z" fill="#3DAFCC"/>
<path d="M14.5711 1.71436H1.42848C0.969972 1.71436 0.617464 1.86919 0.370519 2.17853C0.123371 2.48802 0 2.87506 0 3.33924C0 3.71417 0.16372 4.12042 0.491014 4.5581C0.818308 4.9956 1.16658 5.33925 1.53564 5.58922C1.73797 5.73217 2.34811 6.15634 3.36607 6.86159C3.91559 7.24239 4.39347 7.57431 4.80414 7.86073C5.15418 8.10462 5.45605 8.31584 5.70529 8.49112C5.73391 8.51119 5.7789 8.54338 5.83863 8.58608C5.90297 8.6323 5.9844 8.69095 6.08485 8.76348C6.27828 8.90338 6.43898 9.01647 6.56697 9.10286C6.69479 9.18928 6.84965 9.28581 7.03132 9.393C7.21285 9.50005 7.38406 9.58054 7.54476 9.63408C7.70549 9.68759 7.85428 9.71443 7.99115 9.71443H8.00004H8.00893C8.14578 9.71443 8.2946 9.68759 8.45536 9.63408C8.61602 9.58054 8.78709 9.50022 8.96877 9.393C9.15026 9.28581 9.30492 9.18908 9.43314 9.10286C9.56113 9.01647 9.72183 8.90341 9.9153 8.76348C10.0155 8.69095 10.097 8.63227 10.1613 8.58623C10.2211 8.54335 10.266 8.51137 10.2948 8.49112C10.489 8.35601 10.7916 8.14567 11.1984 7.8632C11.9386 7.34889 13.0287 6.5919 14.4734 5.58922C14.9079 5.28575 15.2709 4.91953 15.5626 4.49108C15.8538 4.06264 15.9998 3.61322 15.9998 3.14298C15.9998 2.75009 15.8583 2.41391 15.5758 2.13391C15.2929 1.85426 14.958 1.71436 14.5711 1.71436Z" fill="#3DAFCC"/>
</svg>
