<svg width="14" height="20" viewBox="0 0 14 20" fill="none" xmlns="http://www.w3.org/2000/svg">
<path d="M7.90915 10.303C10.7497 10.303 13.0607 7.99206 13.0607 5.15152C13.0607 2.31097 10.7497 0 7.90915 0C7.89806 0 7.88703 0.000181818 7.87606 0.000606061H3.66794C3.66751 0.000606061 3.66715 0.000545455 3.66679 0.000545455C3.16473 0.000545455 2.7577 0.407576 2.7577 0.909636V0.909697V9.39394V12.1212H1.84854C1.34648 12.1212 0.939453 12.5282 0.939453 13.0303C0.939453 13.5324 1.34648 13.9394 1.84854 13.9394H2.75763V19.0909C2.75763 19.593 3.16466 20 3.66673 20C4.16879 20 4.57582 19.593 4.57582 19.0909V13.9394H7.90915C8.41121 13.9394 8.81824 13.5324 8.81824 13.0303C8.81824 12.5282 8.41121 12.1212 7.90915 12.1212H4.57582V10.303H7.90915ZM7.90915 1.81879C7.91897 1.81879 7.92878 1.81861 7.93848 1.8183C9.76309 1.83406 11.2425 3.32327 11.2425 5.15152C11.2425 6.98952 9.74715 8.48485 7.90915 8.48485H4.57582V1.81879H7.90915Z" fill="white"/>
</svg>
