<svg width="24" height="24" viewBox="0 0 24 24" fill="none" xmlns="http://www.w3.org/2000/svg">
<g clip-path="url(#clip0)">
<path d="M11.4182 0.0140626C5.07986 0.315859 0.077995 5.59449 0.0972232 11.94C0.103078 13.8727 0.569664 15.6969 1.39275 17.3088L0.129022 23.443C0.0606609 23.7749 0.359933 24.0654 0.689568 23.9873L6.70043 22.5632C8.24472 23.3325 9.97928 23.7768 11.815 23.8048C18.2935 23.9038 23.6953 18.7597 23.8973 12.2837C24.1137 5.34189 18.3844 -0.317696 11.4182 0.0140626ZM18.5905 18.4935C16.8302 20.2539 14.4897 21.2233 12.0002 21.2233C10.5425 21.2233 9.14695 20.8962 7.85212 20.2513L7.01503 19.8343L3.32975 20.7074L4.10548 16.9417L3.69308 16.1341C3.02089 14.8177 2.68006 13.3942 2.68006 11.9032C2.68006 9.41368 3.64951 7.07323 5.40984 5.31284C7.15445 3.56824 9.53313 2.58301 12.0004 2.58301C14.4898 2.58307 16.8302 3.55251 18.5905 5.31278C20.3509 7.07311 21.3203 9.41356 21.3204 11.903C21.3203 14.3703 20.3351 16.749 18.5905 18.4935Z" fill="#3DAFCC"/>
<path d="M17.777 14.4844L15.4714 13.8224C15.1683 13.7353 14.8419 13.8213 14.621 14.0464L14.0572 14.6208C13.8195 14.863 13.4587 14.9409 13.1441 14.8136C12.0534 14.3722 9.75908 12.3323 9.17316 11.3119C9.00412 11.0176 9.03208 10.6496 9.23963 10.381L9.73187 9.74419C9.92473 9.49468 9.96542 9.15959 9.83788 8.87117L8.86786 6.67725C8.63551 6.15177 7.96402 5.99881 7.52533 6.36983C6.88184 6.91407 6.11833 7.74112 6.02552 8.65736C5.86188 10.2728 6.55467 12.3091 9.17448 14.7543C12.2011 17.5791 14.6247 17.9523 16.2028 17.57C17.0978 17.3532 17.8131 16.4841 18.2646 15.7725C18.5723 15.2873 18.3293 14.643 17.777 14.4844Z" fill="#3DAFCC"/>
</g>
<defs>
<clipPath id="clip0">
<rect width="24" height="24" fill="white"/>
</clipPath>
</defs>
</svg>
