<svg width="100" height="100" viewBox="0 0 100 100" fill="none" xmlns="http://www.w3.org/2000/svg">
<g clip-path="url(#clip0)">
<path d="M71.2917 30.2315C70.9018 30.2315 70.5119 30.0827 70.2144 29.7852C69.6193 29.1901 69.6193 28.225 70.2144 27.6306L97.594 0.251007C98.1891 -0.344086 99.1542 -0.344086 99.7486 0.251007C100.344 0.8461 100.344 1.81046 99.7486 2.40555L72.3689 29.7852C72.0714 30.082 71.6815 30.2315 71.2917 30.2315Z" fill="#E5E5E5"/>
<path d="M36.8714 57.7889L42.2105 63.1279L14.3098 91.0279L8.9707 85.6896L36.8714 57.7889Z" fill="#E5E5E5"/>
<path d="M36.8714 57.7889L39.4425 60.36L11.5418 88.2607L8.9707 85.6896L36.8714 57.7889Z" fill="#CBCBCB"/>
<path d="M67.8015 25.2175L74.7809 32.1968L62.5914 44.3856L55.6128 37.407L67.8015 25.2175Z" fill="#E5E5E5"/>
<path d="M67.8018 25.2175L71.3403 28.756L59.1516 40.9455L55.6123 37.407L67.8018 25.2175Z" fill="#CBCBCB"/>
<path d="M54.0888 25.4631L74.5356 45.9099L35.6089 84.8366L15.1621 64.3906L54.0888 25.4631Z" fill="#ACE4EA"/>
<path d="M54.0888 25.4631L58.6108 29.9851L19.6841 68.9118L15.1621 64.3906L54.0888 25.4631Z" fill="#5BB0B7"/>
<path d="M39.4428 40.11L59.8889 60.5568L49.7647 70.6818L29.3179 50.235L39.4428 40.11Z" fill="#5BB0B7"/>
<path d="M36.8719 57.7889L42.211 63.1279L28.0554 77.2828L22.7163 71.9445L36.8719 57.7889Z" fill="#5BB0B7"/>
<path d="M54.0884 25.4631L74.5352 45.9099L55.6616 64.7835L35.2148 44.3367L54.0884 25.4631Z" fill="#F64F44"/>
<path d="M54.0885 25.4631L58.6104 29.9851L39.7368 48.8587L35.2148 44.3367L54.0885 25.4631Z" fill="#D22E29"/>
<path d="M21.8626 98.584C21.0486 99.3988 19.9812 99.8047 18.9131 99.8047C17.8465 99.8032 16.7784 99.3958 15.9651 98.5825L1.41583 84.0332C-0.211525 82.4051 -0.211525 79.7654 1.41583 78.1372C2.23065 77.3232 3.29876 76.9158 4.36383 76.9158C5.43194 76.9158 6.50006 77.3224 7.31335 78.1357L21.8626 92.685C23.4907 94.3131 23.4923 96.9552 21.8626 98.584Z" fill="#CBCBCB"/>
<path d="M21.863 98.584C21.049 99.3988 19.9816 99.8047 18.9135 99.8047C17.8469 99.8032 16.7788 99.3958 15.9655 98.5825L6.57753 89.1945C4.94942 87.5664 4.94942 84.9259 6.57753 83.2985C7.39235 82.4837 8.46047 82.0763 9.52553 82.0763C10.5936 82.0763 11.6602 82.4822 12.4751 83.297L21.863 92.685C23.4911 94.3131 23.4927 96.9551 21.863 98.584Z" fill="#E5E5E5"/>
<path d="M48.4077 87.5695C48.4077 88.0425 48.3269 88.5179 48.1659 88.9688C47.9652 89.5341 47.6379 90.0659 47.187 90.5168C45.5582 92.1456 42.9169 92.1456 41.288 90.5168L15.1611 64.3922L12.9959 62.2247L9.48102 58.7106C8.66696 57.898 8.25879 56.8292 8.25879 55.7626C8.25879 54.6967 8.66696 53.6279 9.48102 52.813C9.9342 52.3606 10.4667 52.0333 11.0313 51.8342C12.5023 51.31 14.2044 51.6373 15.3801 52.813L18.8926 56.3279H18.8949L47.187 84.62C47.9996 85.4348 48.4077 86.5029 48.4077 87.5695Z" fill="#CBCBCB"/>
<path d="M48.4078 87.5695C48.4078 88.0425 48.327 88.5179 48.166 88.9688C46.6973 89.4914 44.9929 89.1641 43.8172 87.9899L17.6903 61.863L15.5244 59.6955L12.0103 56.1829C11.1962 55.3689 10.7896 54.3023 10.7896 53.2342C10.7896 52.7604 10.8689 52.2874 11.0314 51.8342C12.5024 51.31 14.2045 51.6373 15.3802 52.813L18.8927 56.3279H18.895L47.1871 84.62C47.9997 85.4348 48.4078 86.5029 48.4078 87.5695Z" fill="#E5E5E5"/>
<path d="M55.2436 56.797C54.3075 55.8609 54.3075 54.3427 55.2436 53.4058L63.3537 45.2965C64.2898 44.3596 65.8088 44.3596 66.7449 45.2965C67.6811 46.2326 67.6811 47.7509 66.7449 48.6878L58.6349 56.797C57.6987 57.7339 56.1805 57.7339 55.2436 56.797Z" fill="white"/>
</g>
<defs>
<clipPath id="clip0">
<rect width="100" height="100" fill="white"/>
</clipPath>
</defs>
</svg>
