<svg width="100" height="100" viewBox="0 0 100 100" fill="none" xmlns="http://www.w3.org/2000/svg">
<g clip-path="url(#clip0)">
<path d="M90.7865 67.8888H87.4156V61.988C87.4156 61.1525 86.7361 60.473 85.9006 60.473H81.7396C80.9041 60.473 80.2246 61.1525 80.2246 61.988V67.8888H76.8535V61.988C76.8535 59.2939 79.0455 57.1021 81.7395 57.1021H85.9004C88.5943 57.1021 90.7863 59.2939 90.7863 61.988V67.8888H90.7865Z" fill="#666666"/>
<path d="M61.4618 92.6086H98.4352C99.2995 92.6086 100 91.9078 100 91.0435V66.5326C100 65.6683 99.2995 64.9675 98.4352 64.9675H56.7427L61.4618 92.6086Z" fill="#F76B4F"/>
<path d="M83.8201 85.7572C87.7308 85.7572 90.901 82.587 90.901 78.6764C90.901 74.7657 87.7308 71.5955 83.8201 71.5955C79.9095 71.5955 76.7393 74.7657 76.7393 78.6764C76.7393 82.587 79.9095 85.7572 83.8201 85.7572Z" fill="white"/>
<path d="M41.682 29.5739H0V77.2156H41.682V29.5739Z" fill="#808080"/>
<path d="M74.9769 77.4427V97.8433H25.9868V77.4427C25.9868 69.7662 32.2095 63.5435 39.8839 63.5435H61.0776C68.7542 63.5435 74.9769 69.7662 74.9769 77.4427Z" fill="#F2F2F2"/>
<path d="M51.9425 63.5436V97.8434H49.021V63.5436C49.021 62.7367 49.6749 62.0828 50.4817 62.0828C51.2884 62.0828 51.9425 62.7367 51.9425 63.5436Z" fill="#CCCCCC"/>
<path d="M48.4476 63.5435H39.8843C32.2085 63.5435 25.9858 69.766 25.9858 77.442V97.8427H34.5491V77.4418C34.5491 69.766 40.7716 63.5435 48.4476 63.5435Z" fill="#E6E6E6"/>
<path d="M36.7398 79.125C36.1814 79.125 35.7285 78.6723 35.7285 78.1137V57.8885C35.7285 57.3301 36.1813 56.8771 36.7398 56.8771C37.2984 56.8771 37.7512 57.3299 37.7512 57.8885V78.1137C37.7512 78.6723 37.2982 79.125 36.7398 79.125Z" fill="#808080"/>
<path d="M27.1258 44.5491C24.3393 44.4254 22.1211 42.1266 22.1211 39.3108C22.1211 36.4162 24.4672 34.068 27.3639 34.068C27.6246 34.068 27.8807 34.086 28.1324 34.1242" fill="#E0B394"/>
<path d="M73.8281 44.5491C76.6147 44.4254 78.835 42.1266 78.835 39.3108C78.835 36.4162 76.4865 34.068 73.5898 34.068C73.3291 34.068 73.0707 34.0883 72.8213 34.1242" fill="#E0B394"/>
<path d="M64.1563 82.9453C63.598 82.9453 63.145 82.4926 63.145 81.934V55.341C63.145 54.7826 63.5978 54.3297 64.1563 54.3297C64.7147 54.3297 65.1677 54.7824 65.1677 55.341V81.9342C65.1675 82.4926 64.7147 82.9453 64.1563 82.9453Z" fill="#808080"/>
<path d="M67.289 60.5074L58.064 67.2088C53.5425 70.4943 47.4187 70.4943 42.8951 67.2088L33.6701 60.5074C28.7958 56.9658 26.1576 51.1094 26.7373 45.1115L28.3373 28.5537C29.4406 17.1488 39.023 8.44745 50.4794 8.44745C56.2078 8.44745 61.4685 10.6228 65.4349 14.2228C66.4373 15.133 67.3564 16.133 68.1765 17.2139C70.6124 20.4072 72.2103 24.2904 72.6216 28.5535V28.5558L74.2216 45.1113C74.8015 51.1094 72.1632 56.9658 67.289 60.5074Z" fill="#F7CBA4"/>
<path d="M32.478 48.3736C32.3229 50.9961 33.1768 53.576 34.8668 55.5873L44.5082 67.4347C45.0116 68.0347 45.5825 68.5381 46.2004 68.9404C45.0409 68.5359 43.9262 67.956 42.8948 67.2078L33.6698 60.5064C28.7956 56.9648 26.1594 51.1084 26.7393 45.1105L28.3372 28.5527C29.4293 17.2603 38.8364 8.61737 50.1467 8.45331C43.1803 8.62186 35.2916 15.1883 34.8805 22.1818L32.478 48.3736Z" fill="#E8BA97"/>
<path d="M72.6216 28.5537V28.556C67.5854 28.556 63.8394 19.9154 63.8394 19.9154L68.1765 17.2142C70.6126 20.4074 72.2104 24.2908 72.6216 28.5537Z" fill="#666666"/>
<path d="M41.3471 91.485H39.774C39.2156 91.485 38.7627 91.0322 38.7627 90.4736C38.7627 89.9152 39.2154 89.4623 39.774 89.4623H40.3357V82.7207C40.3357 80.7379 38.7227 79.1252 36.7402 79.1252C34.7578 79.1252 33.1447 80.7381 33.1447 82.7207V89.4625H34.0436C34.602 89.4625 35.0549 89.9152 35.0549 90.4738C35.0549 91.0322 34.6021 91.4852 34.0436 91.4852H32.1334C31.575 91.4852 31.1221 91.0324 31.1221 90.4738V82.7207C31.1221 79.6228 33.6424 77.1025 36.7402 77.1025C39.8381 77.1025 42.3584 79.6228 42.3584 82.7207V90.4736C42.3584 91.032 41.9057 91.485 41.3471 91.485Z" fill="#71C5F4"/>
<path d="M64.1573 91.784C66.8775 91.784 69.0827 89.5788 69.0827 86.8586C69.0827 84.1384 66.8775 81.9332 64.1573 81.9332C61.4371 81.9332 59.2319 84.1384 59.2319 86.8586C59.2319 89.5788 61.4371 91.784 64.1573 91.784Z" fill="#71C5F4"/>
<path d="M64.1567 89.5031C65.6173 89.5031 66.8013 88.3191 66.8013 86.8586C66.8013 85.398 65.6173 84.2141 64.1567 84.2141C62.6962 84.2141 61.5122 85.398 61.5122 86.8586C61.5122 88.3191 62.6962 89.5031 64.1567 89.5031Z" fill="#E6F6FC"/>
<path d="M47.0394 19.9152H69.914V2.15662H31.0454V19.9152" fill="#F2F2F2"/>
<path d="M33.9581 19.9152H38.1237V2.15662H31.0454V19.9152" fill="#CCCCCC"/>
<path d="M55.6109 9.35037H52.1652V5.90466H48.7943V9.35037H45.3486V12.7213H48.7943V16.1672H52.1652V12.7213H55.6109V9.35037Z" fill="#F76B4F"/>
<path d="M88.6142 77.3271H85.1685V73.8814H82.4718V77.3271H79.0259V80.024H82.4718V83.4699H85.1685V80.024H88.6142V77.3271Z" fill="#F76B4F"/>
<path d="M42.4902 18.9041C42.4902 24.302 38.1148 28.6797 32.717 28.6797C30.4697 28.6797 28.4 27.9223 26.7482 26.6459C24.4336 24.8594 22.9414 22.0547 22.9414 18.9041C22.9414 13.5063 27.3168 9.12854 32.717 9.12854C34.717 9.12854 36.5756 9.72854 38.1238 10.76C40.7553 12.5129 42.4902 15.5063 42.4902 18.9041Z" fill="#C0E7F9"/>
<path d="M42.4905 18.9041C42.4905 24.3019 38.1151 28.6797 32.7173 28.6797C30.47 28.6797 28.4003 27.9222 26.7485 26.6459L38.1241 10.7601C40.7556 12.5129 42.4905 15.5062 42.4905 18.9041Z" fill="#E6F6FC"/>
<path d="M15.9527 69.9113C15.2699 69.9113 14.7168 69.358 14.7168 68.6754V40.5848C14.7168 39.9021 15.2701 39.3488 15.9527 39.3488C16.6354 39.3488 17.1887 39.9021 17.1887 40.5848V68.6754C17.1889 69.358 16.6355 69.9113 15.9527 69.9113Z" fill="#B3B3B3"/>
<path d="M34.9624 18.9041C34.9624 20.1446 33.9569 21.1504 32.7165 21.1504C32.2001 21.1504 31.7245 20.9764 31.345 20.683C30.8132 20.2725 30.4702 19.628 30.4702 18.9041C30.4702 17.6637 31.4757 16.6578 32.7165 16.6578C33.1761 16.6578 33.6032 16.7957 33.9591 17.0326C34.5638 17.4356 34.9624 18.1235 34.9624 18.9041Z" fill="white"/>
<path d="M11.4579 44.2926H6.06455C5.38174 44.2926 4.82861 43.7392 4.82861 43.0566C4.82861 42.374 5.38193 41.8207 6.06455 41.8207H11.4579C12.1407 41.8207 12.6938 42.374 12.6938 43.0566C12.6938 43.7392 12.1407 44.2926 11.4579 44.2926Z" fill="#B3B3B3"/>
<path d="M11.4579 57.1769H6.06455C5.38174 57.1769 4.82861 56.6236 4.82861 55.941C4.82861 55.2581 5.38193 54.705 6.06455 54.705H11.4579C12.1407 54.705 12.6938 55.2583 12.6938 55.941C12.694 56.6238 12.1407 57.1769 11.4579 57.1769Z" fill="#B3B3B3"/>
<path d="M11.4579 50.7347H6.06455C5.38174 50.7347 4.82861 50.1814 4.82861 49.4988C4.82861 48.8162 5.38193 48.2629 6.06455 48.2629H11.4579C12.1407 48.2629 12.6938 48.8162 12.6938 49.4988C12.694 50.1816 12.1407 50.7347 11.4579 50.7347Z" fill="#B3B3B3"/>
<path d="M11.4579 63.6189H6.06455C5.38174 63.6189 4.82861 63.0656 4.82861 62.383C4.82861 61.7002 5.38193 61.147 6.06455 61.147H11.4579C12.1407 61.147 12.6938 61.7004 12.6938 62.383C12.694 63.0658 12.1407 63.6189 11.4579 63.6189Z" fill="#B3B3B3"/>
<path d="M23.8181 57.1769H20.8966C20.2138 57.1769 19.6606 56.6236 19.6606 55.941C19.6606 55.2581 20.214 54.705 20.8966 54.705H23.8181C24.5009 54.705 25.054 55.2583 25.054 55.941C25.054 56.6238 24.5009 57.1769 23.8181 57.1769Z" fill="#B3B3B3"/>
<path d="M22.0202 50.7347H20.8966C20.2138 50.7347 19.6606 50.1814 19.6606 49.4988C19.6606 48.8162 20.214 48.2629 20.8966 48.2629H22.0202C22.703 48.2629 23.2562 48.8162 23.2562 49.4988C23.2563 50.1816 22.703 50.7347 22.0202 50.7347Z" fill="#B3B3B3"/>
<path d="M26.2899 63.6189H20.8966C20.2138 63.6189 19.6606 63.0656 19.6606 62.383C19.6606 61.7002 20.214 61.147 20.8966 61.147H26.2899C26.9728 61.147 27.5259 61.7004 27.5259 62.383C27.5259 63.0658 26.9726 63.6189 26.2899 63.6189Z" fill="#B3B3B3"/>
<path d="M46.0126 75.4539C46.8504 75.4539 47.5296 74.7747 47.5296 73.9369C47.5296 73.0991 46.8504 72.4199 46.0126 72.4199C45.1748 72.4199 44.4956 73.0991 44.4956 73.9369C44.4956 74.7747 45.1748 75.4539 46.0126 75.4539Z" fill="#CCCCCC"/>
<path d="M59.2775 52.7186C59.2775 52.7186 59.1494 53.0332 58.8797 53.5299C58.8145 53.658 58.7381 53.7928 58.6527 53.9389C58.5516 54.0826 58.4348 54.2287 58.309 54.3928C58.1832 54.5569 58.0393 54.7231 57.8865 54.9074C57.8326 54.9772 57.7742 55.0356 57.7113 55.0961C57.6889 55.1186 57.6641 55.141 57.6395 55.1635C57.5518 55.2444 57.4619 55.3297 57.3697 55.4153C57.1855 55.5883 56.9853 55.759 56.7764 55.9389C56.5561 56.1006 56.3201 56.2535 56.0775 56.4197C55.9562 56.503 55.8303 56.5838 55.7023 56.6647C55.5742 56.741 55.4371 56.8039 55.2978 56.8737C55.0236 57.0129 54.7383 57.1479 54.4439 57.2826C53.8371 57.4895 53.2057 57.7321 52.5314 57.8332C51.8662 57.9883 51.1719 58.0129 50.4797 58.0467C49.7875 58.0129 49.0932 57.9905 48.4279 57.8354C47.7537 57.7342 47.1223 57.4916 46.5154 57.2848C46.2211 57.1522 45.9355 57.0174 45.6592 56.878C45.5221 56.8082 45.385 56.7453 45.2547 56.669C45.1289 56.5858 45.0029 56.5072 44.8816 56.424C44.6389 56.2578 44.4008 56.1028 44.1805 55.9432C43.9715 55.7635 43.7736 55.5905 43.5871 55.4196C43.4949 55.3319 43.4074 55.2489 43.3197 55.1656C43.2883 55.1364 43.2568 55.1072 43.2254 55.078C43.1715 55.024 43.1197 54.9723 43.0748 54.9117C42.9287 54.7342 42.7871 54.5701 42.6635 54.4084C42.5422 54.2444 42.423 54.1006 42.3242 53.9567C42.2344 53.8039 42.1512 53.6645 42.0814 53.5363C41.8006 53.024 41.6836 52.7184 41.6836 52.7184C41.6836 52.7184 42.0162 52.8196 42.5285 53.0262C42.6588 53.0756 42.7937 53.1364 42.9443 53.1969C43.1039 53.2442 43.268 53.3047 43.4432 53.3631C43.6207 53.4215 43.7982 53.4934 43.9869 53.561C44.1734 53.6328 44.3848 53.6801 44.5937 53.743C44.8027 53.8037 45.0117 53.8778 45.2297 53.943C45.4566 53.9924 45.6836 54.0508 45.9174 54.1071C46.0342 54.134 46.1488 54.1678 46.2656 54.1992C46.3848 54.2262 46.5084 54.242 46.6297 54.2666C46.8746 54.3094 47.1195 54.3588 47.3645 54.4149C47.8746 54.4621 48.3779 54.5744 48.9039 54.5947C49.423 54.6621 49.9533 54.6442 50.4793 54.6756C51.0074 54.6442 51.5377 54.6643 52.0568 54.5969C52.5826 54.5789 53.0861 54.4643 53.5963 54.4172C53.8412 54.3633 54.0861 54.3139 54.3311 54.2711C54.4523 54.2463 54.576 54.2307 54.6951 54.2037C54.8119 54.1699 54.9289 54.1385 55.0434 54.1115C55.2771 54.0553 55.5041 53.9948 55.7311 53.9475C55.9514 53.8823 56.1603 53.8082 56.3693 53.7475C56.5762 53.6846 56.7918 53.6352 56.9717 53.5655C57.1561 53.5026 57.3289 53.4328 57.5043 53.3789C57.6773 53.3205 57.8391 53.2621 57.9986 53.2149C58.1559 53.1475 58.2953 53.0822 58.4279 53.0305C58.9518 52.8129 59.2775 52.7186 59.2775 52.7186Z" fill="#F2F2F2"/>
<path d="M57.7105 55.096C57.6881 55.1185 57.6633 55.141 57.6387 55.1634C57.551 55.2443 57.4611 55.3296 57.3689 55.4152C57.1848 55.5882 56.9846 55.7589 56.7756 55.9388C56.5553 56.1005 56.3193 56.2535 56.0767 56.4197C55.9555 56.5029 55.8295 56.5837 55.7016 56.6646C55.5734 56.741 55.4363 56.8039 55.2971 56.8736C55.0228 57.0128 54.7375 57.1478 54.4432 57.2826C53.8363 57.4894 53.2049 57.732 52.5307 57.8332C51.8654 57.9882 51.1711 58.0128 50.4789 58.0466C49.7867 58.0128 49.0924 57.9904 48.4271 57.8353C47.7529 57.7341 47.1215 57.4916 46.5146 57.2847C46.2203 57.1521 45.9348 57.0173 45.6584 56.8779C45.5213 56.8082 45.3842 56.7453 45.2539 56.6689C45.1281 56.5857 45.0021 56.5072 44.8809 56.424C44.6381 56.2578 44.4 56.1027 44.1797 55.9431C43.9707 55.7634 43.7729 55.5904 43.5863 55.4195C43.4941 55.3318 43.4066 55.2488 43.3189 55.1656C43.2875 55.1363 43.2561 55.1072 43.2246 55.0779C43.2965 55.1027 43.3684 55.1273 43.4426 55.1521C43.6201 55.2105 43.7977 55.2802 43.9863 55.3476C44.1729 55.4218 44.3842 55.4689 44.5932 55.532C44.8021 55.5927 45.0111 55.6646 45.2291 55.732C45.4561 55.7792 45.683 55.8398 45.9168 55.896C46.0336 55.923 46.1482 55.9544 46.265 55.9859C46.3842 56.0128 46.5078 56.0287 46.6291 56.0533C46.874 56.096 47.1189 56.1476 47.3639 56.2015C47.874 56.2509 48.3773 56.3632 48.9033 56.3812C49.4225 56.4509 49.9527 56.4306 50.4787 56.4644C51.0068 56.433 51.5371 56.4531 52.0562 56.3835C52.582 56.3656 53.0855 56.2533 53.5957 56.206C53.8406 56.1521 54.0855 56.1003 54.3305 56.0578C54.4518 56.033 54.5754 56.0173 54.6945 55.9904C54.8113 55.9589 54.9283 55.9275 55.0428 55.9005C55.2766 55.8443 55.5035 55.7837 55.7305 55.7365C55.9508 55.6691 56.1598 55.5949 56.3687 55.5365C56.5756 55.4736 56.7912 55.4218 56.9711 55.3544C57.1555 55.2892 57.3283 55.2218 57.5037 55.1658C57.5734 55.1433 57.6432 55.1185 57.7105 55.096Z" fill="#4D4D4D"/>
<path d="M40.4759 45.1906C39.545 45.1906 38.7905 44.4359 38.7905 43.5053V40.8094C38.7905 39.8785 39.5452 39.124 40.4759 39.124C41.4067 39.124 42.1612 39.8787 42.1612 40.8094V43.5053C42.1612 44.4359 41.4065 45.1906 40.4759 45.1906Z" fill="#4D4D4D"/>
<path d="M56.6309 34.2924C56.6309 34.2924 56.6354 34.2476 56.6504 34.1709C56.6678 34.0965 56.6852 33.9789 56.723 33.8459C56.7398 33.7771 56.7617 33.7054 56.7867 33.6265C56.8193 33.5465 56.8631 33.466 56.9096 33.3748C56.9557 33.2832 57.0139 33.1926 57.075 33.0908C57.1365 32.9875 57.21 32.909 57.2853 32.8092C57.3617 32.7133 57.4479 32.6205 57.5377 32.5207C57.6328 32.4306 57.7359 32.3418 57.8455 32.2525C58.0602 32.0635 58.3225 31.9269 58.5957 31.775C58.8783 31.6554 59.1783 31.5258 59.4998 31.4658C59.818 31.3832 60.1518 31.3635 60.4846 31.348C60.8174 31.3633 61.1514 31.381 61.4697 31.4633C61.7912 31.5226 62.0916 31.6529 62.3744 31.7717C62.6478 31.9234 62.9104 32.0597 63.1252 32.249C63.2346 32.3385 63.3381 32.4275 63.4332 32.5172C63.523 32.6172 63.6088 32.7109 63.6855 32.8062C63.7598 32.9056 63.8367 32.9871 63.8932 33.0865C63.9498 33.1853 64.0047 33.274 64.049 33.3636C64.0934 33.4535 64.1361 33.5326 64.1686 33.6125C64.198 33.6957 64.224 33.7709 64.2434 33.8422C64.2861 33.9799 64.3039 34.0984 64.3203 34.1724C64.3348 34.249 64.3379 34.2927 64.3379 34.2927C64.3379 34.2927 64.2914 34.2916 64.2127 34.284C64.1363 34.274 64.0176 34.2691 63.8867 34.25C63.8189 34.2429 63.7496 34.2304 63.6734 34.2203C63.5924 34.2164 63.5123 34.2052 63.4254 34.1984C63.2549 34.1804 63.0768 34.1537 62.8811 34.1461C62.785 34.1398 62.6916 34.1258 62.5941 34.1177C62.4932 34.1164 62.3937 34.1113 62.2947 34.1039C62.101 34.0787 61.8904 34.0935 61.6949 34.0691C61.4893 34.0765 61.2924 34.0513 61.0887 34.0576C60.8883 34.0426 60.6855 34.0586 60.4844 34.0443C60.2832 34.058 60.0805 34.0404 59.8797 34.0551C59.6756 34.0478 59.4787 34.074 59.2727 34.0656C59.077 34.0898 58.8658 34.0748 58.6723 34.1002C58.5734 34.1076 58.4738 34.1131 58.3727 34.114C58.2752 34.122 58.1822 34.1369 58.0857 34.1427C57.8861 34.1535 57.7203 34.1724 57.5539 34.1869C57.4664 34.1937 57.3848 34.2 57.309 34.2054C57.2283 34.2201 57.1547 34.2363 57.0846 34.2455C56.9486 34.2695 56.8297 34.2752 56.7543 34.2847C56.676 34.2924 56.6309 34.2924 56.6309 34.2924Z" fill="#666666"/>
<path d="M36.6226 34.2924C36.6226 34.2924 36.6271 34.2476 36.6421 34.1709C36.6595 34.0965 36.6769 33.9789 36.7147 33.8459C36.7315 33.7771 36.7534 33.7054 36.7784 33.6265C36.811 33.5465 36.8548 33.466 36.9013 33.3748C36.9474 33.2832 37.0056 33.1926 37.0667 33.0908C37.1282 32.9875 37.2017 32.909 37.2771 32.8092C37.3534 32.7133 37.4396 32.6205 37.5294 32.5207C37.6245 32.4306 37.7276 32.3418 37.8372 32.2525C38.0519 32.0635 38.3142 31.9269 38.5874 31.775C38.87 31.6554 39.17 31.5258 39.4915 31.4658C39.8097 31.3832 40.1435 31.3635 40.4763 31.348C40.8091 31.3633 41.1431 31.381 41.4614 31.4633C41.7829 31.5226 42.0833 31.6529 42.3661 31.7717C42.6396 31.9234 42.9021 32.0597 43.1169 32.249C43.2263 32.3385 43.3298 32.4275 43.4249 32.5172C43.5147 32.6172 43.6005 32.7109 43.6773 32.8062C43.7515 32.9056 43.8284 32.9871 43.8849 33.0865C43.9415 33.1853 43.9964 33.274 44.0409 33.3636C44.0853 33.4535 44.128 33.5326 44.1605 33.6125C44.1899 33.6957 44.2159 33.7709 44.2353 33.8422C44.278 33.9799 44.2958 34.0984 44.312 34.1724C44.3265 34.249 44.3296 34.2927 44.3296 34.2927C44.3296 34.2927 44.2831 34.2916 44.2044 34.284C44.128 34.274 44.0093 34.2691 43.8782 34.25C43.8105 34.2429 43.7411 34.2304 43.6649 34.2203C43.5839 34.2164 43.5038 34.2052 43.4169 34.1984C43.2464 34.1804 43.0683 34.1537 42.8726 34.1461C42.7765 34.1398 42.6831 34.1258 42.5856 34.1177C42.4847 34.1164 42.3853 34.1113 42.2862 34.1039C42.0925 34.0787 41.8819 34.0935 41.6864 34.0691C41.4808 34.0765 41.2839 34.0513 41.0802 34.0576C40.8798 34.0426 40.6771 34.0586 40.4759 34.0443C40.2747 34.058 40.072 34.0404 39.8712 34.0551C39.6671 34.0478 39.4702 34.074 39.2642 34.0656C39.0685 34.0898 38.8573 34.0748 38.6638 34.1002C38.5649 34.1076 38.4653 34.1131 38.3642 34.114C38.2667 34.122 38.1737 34.1369 38.0772 34.1427C37.8776 34.1535 37.7118 34.1724 37.5454 34.1869C37.4579 34.1937 37.3763 34.2 37.3005 34.2054C37.2198 34.2201 37.1462 34.2363 37.0761 34.2455C36.9401 34.2695 36.8212 34.2752 36.7458 34.2847C36.6675 34.2924 36.6226 34.2924 36.6226 34.2924Z" fill="#666666"/>
<path d="M60.4842 45.1906C59.5533 45.1906 58.7988 44.4359 58.7988 43.5053V40.8094C58.7988 39.8785 59.5535 39.124 60.4842 39.124C61.415 39.124 62.1695 39.8787 62.1695 40.8094V43.5053C62.1695 44.4359 61.4148 45.1906 60.4842 45.1906Z" fill="#4D4D4D"/>
<path d="M53.0643 38.3375V46.3153C53.0643 47.7424 51.9072 48.8996 50.4799 48.8996C49.0527 48.8996 47.8955 47.7426 47.8955 46.3153V38.3375" fill="#E8BA97"/>
<path d="M11.3479 31.2772H3.25781V37.8301H11.3479V31.2772Z" fill="#E6E6E6"/>
</g>
<defs>
<clipPath id="clip0">
<rect width="100" height="100" fill="white"/>
</clipPath>
</defs>
</svg>
