<svg width="100" height="100" viewBox="0 0 100 100" fill="none" xmlns="http://www.w3.org/2000/svg">
<path d="M57.4073 5.55548H42.5925C38.5073 5.55548 35.1851 8.87775 35.1851 12.9629V22.2221H38.8888V14.8149C38.8888 12.7733 40.5509 11.1111 42.5925 11.1111H57.4073C59.4489 11.1111 61.111 12.7733 61.111 14.8149V22.2223H64.8148V12.9629C64.8148 8.87775 61.4925 5.55548 57.4073 5.55548Z" fill="#707487"/>
<path d="M38.8888 16.6666H35.1851V22.2221H38.8888V16.6666Z" fill="#5B5D6E"/>
<path d="M64.8145 16.6666H61.1108V22.2221H64.8145V16.6666Z" fill="#5B5D6E"/>
<path d="M94.4445 94.4445H5.55547C2.4873 94.4445 0 91.9572 0 88.8888V25.926C0 22.8576 2.4873 20.3705 5.55547 20.3705H94.4443C97.5127 20.3705 99.9998 22.8578 99.9998 25.926V88.8888C100 91.957 97.5125 94.4445 94.4445 94.4445Z" fill="#FF5050"/>
<path d="M50.0002 81.4815C64.3187 81.4815 75.9262 69.874 75.9262 55.5555C75.9262 41.237 64.3187 29.6295 50.0002 29.6295C35.6817 29.6295 24.0742 41.237 24.0742 55.5555C24.0742 69.874 35.6817 81.4815 50.0002 81.4815Z" fill="#E4EAF8"/>
<path d="M50.0001 77.7777C62.2731 77.7777 72.2224 67.8285 72.2224 55.5555C72.2224 43.2824 62.2731 33.3332 50.0001 33.3332C37.7271 33.3332 27.7778 43.2824 27.7778 55.5555C27.7778 67.8285 37.7271 77.7777 50.0001 77.7777Z" fill="white"/>
<path d="M61.1114 51.8518H53.704V44.4443C53.704 43.4217 52.8749 42.5926 51.8522 42.5926H48.1485C47.1259 42.5926 46.2968 43.4217 46.2968 44.4443V51.8518H38.8894C37.8667 51.8518 37.0376 52.6809 37.0376 53.7035V57.4072C37.0376 58.4299 37.8667 59.259 38.8894 59.259H46.2968V66.6664C46.2968 67.6891 47.1259 68.5182 48.1485 68.5182H51.8522C52.8749 68.5182 53.704 67.6891 53.704 66.6664V59.259H61.1114C62.1341 59.259 62.9632 58.4299 62.9632 57.4072V53.7035C62.9632 52.6809 62.1341 51.8518 61.1114 51.8518Z" fill="#FF5050"/>
<path d="M94.4445 88.8888H5.55547C2.4873 88.8888 0 86.4015 0 83.3334V88.8888C0 91.9572 2.4873 94.4443 5.55547 94.4443H94.4443C97.5127 94.4443 99.9998 91.957 99.9998 88.8888V83.3334C100 86.4015 97.5125 88.8888 94.4445 88.8888Z" fill="#C84146"/>
</svg>
