<svg width="100" height="100" viewBox="0 0 100 100" fill="none" xmlns="http://www.w3.org/2000/svg">
<path d="M92.6557 32.7209C92.957 19.9484 82.8137 9.12458 70.0382 8.98572C61.4849 8.89264 54.0027 13.497 49.9996 20.3757C45.9956 13.497 38.5142 8.89188 29.9609 8.98572C17.1854 9.12458 7.0421 19.9484 7.34346 32.7209C8.0179 61.2618 42.1535 86.0864 48.862 90.6938C49.5479 91.1653 50.4512 91.1653 51.1371 90.6938C57.8457 86.0864 91.9812 61.2618 92.6557 32.7209Z" fill="#FF5555"/>
<path d="M92.6672 31.8671C92.6672 60.762 57.9212 86.0337 51.1379 90.6923C50.4513 91.1638 49.5472 91.1661 48.8598 90.6946C47.1889 89.5471 43.816 87.1453 39.6831 83.7449C46.4954 79.0635 81.194 53.8063 81.194 24.9289C81.194 19.0634 78.9899 13.7121 75.3613 9.66779C85.304 12.1573 92.6672 21.1485 92.6672 31.8671Z" fill="#F72B2B"/>
<path d="M49.7164 73.7603C48.4758 73.7603 47.41 72.8776 47.1796 71.6569L40.8762 38.1736L34.1691 54.113C33.7785 55.0415 32.8843 55.6572 31.878 55.6916C30.8702 55.7259 29.9371 55.1712 29.4847 54.2717L27.6918 50.708H2.58103C1.15586 50.708 0 49.5522 0 48.127C0 46.7011 1.15586 45.546 2.58103 45.546H29.2825C30.253 45.546 31.141 46.0899 31.5812 46.9536L39.4464 28.2638C39.8882 27.2132 40.967 26.5769 42.0984 26.6982C43.2314 26.8188 44.1507 27.6672 44.362 28.7872L49.5592 56.3973L51.7099 43.4784C51.9167 42.2333 52.9932 41.3208 54.2551 41.3208H62.6788C63.5516 41.3208 64.3656 41.7618 64.8417 42.4927L68.7968 48.5634L70.5027 46.4882C70.9933 45.8916 71.725 45.546 72.4971 45.546H97.4194C98.8445 45.546 99.9996 46.7018 99.9996 48.127C99.9996 49.5522 98.8445 50.708 97.4194 50.708H73.717L70.5508 54.5601C70.029 55.1949 69.2347 55.5436 68.4146 55.4985C67.5929 55.4535 66.8429 55.0194 66.3943 54.3305L61.2811 46.4829H56.4425L52.2623 71.6027C52.0571 72.8372 50.9951 73.7466 49.7438 73.7596C49.7347 73.7596 49.7248 73.7603 49.7164 73.7603Z" fill="#60DAFF"/>
</svg>
